{
  "accessors": [
    {
      "bufferView": 2,
      "componentType": 5126,
      "count": 1843,
      "max": [
        3.1497964859008789,
        0.84272712469100952,
        0.37217104434967041
      ],
      "min": [
        -1.5873816013336182,
        -0.71052950620651245,
        -0.37217104434967041
      ],
      "type": "VEC3"
    },
    {
      "bufferView": 2,
      "byteOffset": 22116,
      "componentType": 5126,
      "count": 1843,
      "max": [
        0.99996459484100342,
        0.99999642372131348,
        0.99998104572296143
      ],
      "min": [
        -0.99945950508117676,
        -0.99987697601318359,
        -0.99998104572296143
      ],
      "type": "VEC3"
    },
    {
      "bufferView": 1,
      "componentType": 5126,
      "count": 1843,
      "max": [
        1.0002250671386719,
        0.62500005960464478
      ],
      "min": [
        -0.00022483395878225565,
        0
      ],
      "type": "VEC2"
    },
    {
      "bufferView": 0,
      "componentType": 5125,
      "count": 9516,
      "max": [
        1842
      ],
      "min": [
        0
      ],
      "type": "SCALAR"
    },
    {
      "bufferView": 2,
      "byteOffset": 44232,
      "componentType": 5126,
      "count": 102,
      "max": [
        -1.1514694690704346,
        0.094422630965709686,
        0.19889175891876221
      ],
      "min": [
        -1.3044490814208984,
        -0.054550178349018097,
        -0.19889175891876221
      ],
      "type": "VEC3"
    },
    {
      "bufferView": 2,
      "byteOffset": 45456,
      "componentType": 5126,
      "count": 102,
      "max": [
        0.69809359312057495,
        0.94170618057250977,
        0.99818944931030273
      ],
      "min": [
        -0.90779203176498413,
        -0.62979322671890259,
        -0.99818944931030273
      ],
      "type": "VEC3"
    },
    {
      "bufferView": 1,
      "byteOffset": 14744,
      "componentType": 5126,
      "count": 102,
      "max": [
        1.0000001192092896,
        0.76656639575958252
      ],
      "min": [
        0,
        0.625
      ],
      "type": "VEC2"
    },
    {
      "bufferView": 0,
      "byteOffset": 38064,
      "componentType": 5125,
      "count": 384,
      "max": [
        101
      ],
      "min": [
        0
      ],
      "type": "SCALAR"
    },
    {
      "bufferView": 2,
      "byteOffset": 46680,
      "componentType": 5126,
      "count": 102,
      "max": [
        -1.1791743040084839,
        0.081060722470283508,
        0.20663326978683472
      ],
      "min": [
        -1.2874372005462646,
        -0.024354381486773491,
        -0.20663326978683472
      ],
      "type": "VEC3"
    },
    {
      "bufferView": 2,
      "byteOffset": 47904,
      "componentType": 5126,
      "count": 102,
      "max": [
        0.50728952884674072,
        0.83023470640182495,
        0.99155265092849731
      ],
      "min": [
        -0.77159619331359863,
        -0.41624844074249268,
        -0.99155265092849731
      ],
      "type": "VEC3"
    },
    {
      "bufferView": 1,
      "byteOffset": 15560,
      "componentType": 5126,
      "count": 102,
      "max": [
        1.0014369487762451,
        0.93750005960464478
      ],
      "min": [
        -0.0014367911498993635,
        0.76656454801559448
      ],
      "type": "VEC2"
    },
    {
      "bufferView": 0,
      "byteOffset": 39600,
      "componentType": 5125,
      "count": 468,
      "max": [
        101
      ],
      "min": [
        0
      ],
      "type": "SCALAR"
    }
  ],
  "asset": {
    "extras": {
      "author": "Calvinator (https://sketchfab.com/Calvinator)",
      "license": "CC-BY-4.0 (http://creativecommons.org/licenses/by/4.0/)",
      "source": "https://sketchfab.com/3d-models/trout-model-80220d404cce4c83b859d1fba209b608",
      "title": "Trout Model"
    },
    "generator": "Sketchfab-8.31.0",
    "version": "2.0"
  },
  "bufferViews": [
    {
      "buffer": 0,
      "byteLength": 41472,
      "byteOffset": 0,
      "name": "floatBufferViews",
      "target": 34963
    },
    {
      "buffer": 0,
      "byteLength": 16376,
      "byteOffset": 41472,
      "byteStride": 8,
      "name": "floatBufferViews",
      "target": 34962
    },
    {
      "buffer": 0,
      "byteLength": 49128,
      "byteOffset": 57848,
      "byteStride": 12,
      "name": "floatBufferViews",
      "target": 34962
    }
  ],
  "buffers": [
    {
      "byteLength": 106976,
      "uri": "scene.bin"
    }
  ],
  "materials": [
    {
      "doubleSided": true,
      "name": "Material.001",
      "pbrMetallicRoughness": {
        "baseColorFactor": [
          1,
          1,
          1,
          1
        ],
        "metallicFactor": 0,
        "roughnessFactor": 1
      }
    },
    {
      "doubleSided": true,
      "emissiveFactor": [
        0,
        0,
        0
      ],
      "name": "Material.006",
      "pbrMetallicRoughness": {
        "baseColorFactor": [
          0.81658500000000001,
          0.81658500000000001,
          0.81658500000000001,
          1
        ],
        "metallicFactor": 0,
        "roughnessFactor": 0.10000000000000001
      }
    },
    {
      "doubleSided": true,
      "emissiveFactor": [
        0,
        0,
        0
      ],
      "name": "Material.009",
      "pbrMetallicRoughness": {
        "baseColorFactor": [
          0,
          0,
          0,
          1
        ],
        "metallicFactor": 0,
        "roughnessFactor": 0.10000000000000001
      }
    }
  ],
  "meshes": [
    {
      "primitives": [
        {
          "attributes": {
            "NORMAL": 1,
            "POSITION": 0,
            "TEXCOORD_0": 2
          },
          "indices": 3,
          "material": 0,
          "mode": 4
        }
      ]
    },
    {
      "primitives": [
        {
          "attributes": {
            "NORMAL": 5,
            "POSITION": 4,
            "TEXCOORD_0": 6
          },
          "indices": 7,
          "material": 1,
          "mode": 4
        }
      ]
    },
    {
      "primitives": [
        {
          "attributes": {
            "NORMAL": 9,
            "POSITION": 8,
            "TEXCOORD_0": 10
          },
          "indices": 11,
          "material": 2,
          "mode": 4
        }
      ]
    }
  ],
  "nodes": [
    {
      "children": [
        1
      ],
      "name": "RootNode (gltf orientation matrix)",
      "rotation": [
        -0.70710678118654746,
        -0,
        -0,
        0.70710678118654757
      ]
    },
    {
      "children": [
        2
      ],
      "matrix": [
        0.019166868180036545,
        0,
        0,
        0,
        0,
        0.019166868180036545,
        3.0822674331565405e-18,
        0,
        0,
        -3.0822674331565405e-18,
        0.019166868180036545,
        0,
        0,
        -2.9154340413736247e-15,
        -8.8817841970012523e-16,
        1
      ],
      "name": "RootNode (model correction matrix)"
    },
    {
      "children": [
        3
      ],
      "name": "root"
    },
    {
      "children": [
        4
      ],
      "matrix": [
        1,
        0,
        0,
        0,
        0,
        2.2204460492503131e-16,
        1,
        0,
        0,
        -1,
        2.2204460492503131e-16,
        0,
        0,
        0,
        0,
        1
      ],
      "name": "GLTF_SceneRootNode"
    },
    {
      "children": [
        5,
        6,
        7
      ],
      "matrix": [
        18,
        0,
        0,
        0,
        0,
        18,
        0,
        0,
        0,
        0,
        18,
        0,
        -5.9920873641967773,
        0.011566162109375,
        0,
        1
      ],
      "name": "Trout_0"
    },
    {
      "mesh": 0,
      "name": ""
    },
    {
      "mesh": 1,
      "name": ""
    },
    {
      "mesh": 2,
      "name": ""
    }
  ],
  "scene": 0,
  "scenes": [
    {
      "name": "OSG_Scene",
      "nodes": [
        0
      ]
    }
  ]
}

